<?xml version="1.0" encoding="utf-8"?>
<!-- Generator: Adobe Illustrator 27.0.0, SVG Export Plug-In . SVG Version: 6.00 Build 0)  -->
<svg version="1.1" id="Layer_1" xmlns="http://www.w3.org/2000/svg" xmlns:xlink="http://www.w3.org/1999/xlink" x="0px" y="0px"
	 viewBox="0 0 266.63 93.85" style="enable-background:new 0 0 266.63 93.85;" xml:space="preserve">
<style type="text/css">
	
		.st0{clip-path:url(#SVGID_00000045615048738398421460000007753899710785459338_);fill:none;stroke:#8B6F4B;stroke-width:2.2086;stroke-linecap:round;stroke-linejoin:round;stroke-miterlimit:10;}
	.st1{fill:none;stroke:#8B6F4B;stroke-width:2.2086;stroke-linecap:round;stroke-linejoin:round;stroke-miterlimit:10;}
	.st2{fill:#244B5A;}
	.st3{fill:#8B6F4B;}
	.st4{clip-path:url(#SVGID_00000121976118011841923900000011199163223831961505_);}
</style>
<g>
	<g>
		<g>
			<g>
				<defs>
					<rect id="SVGID_1_" x="6.5" y="46.98" width="32.28" height="33.95"/>
				</defs>
				<clipPath id="SVGID_00000026156038857616215060000013006358697107070084_">
					<use xlink:href="#SVGID_1_"  style="overflow:visible;"/>
				</clipPath>
			</g>
		</g>
		<g>
			<g>
				<defs>
					<rect id="SVGID_00000134961371339565287690000002705565255999010454_" x="6.5" y="46.98" width="32.28" height="33.95"/>
				</defs>
				<clipPath id="SVGID_00000140732813281363077360000016215468474803365045_">
					<use xlink:href="#SVGID_00000134961371339565287690000002705565255999010454_"  style="overflow:visible;"/>
				</clipPath>
				
					<path style="clip-path:url(#SVGID_00000140732813281363077360000016215468474803365045_);fill:none;stroke:#8B6F4B;stroke-width:2.2086;stroke-linecap:round;stroke-linejoin:round;stroke-miterlimit:10;" d="
					M38.01,77.34c-14.59-2.99-25.57-15.9-25.57-31.37"/>
			</g>
			<path class="st1" d="M43.52,8.33C23.08,9.24,6.79,26.09,6.79,46.75c0,0.12,0.01,0.23,0.01,0.35h36.71V8.33z"/>
			<path class="st1" d="M39.14,85.53c23.41-1.04,42.08-20.34,42.08-44.01c0-0.13-0.01-0.26-0.01-0.4H39.14V85.53z"/>
			<path class="st1" d="M68.38,27.78c0,4.33-3.51,7.85-7.85,7.85s-7.85-3.51-7.85-7.85s7.85-19.05,7.85-19.05
				S68.38,23.45,68.38,27.78z"/>
			<circle class="st1" cx="54.05" cy="66.74" r="6.38"/>
			<line class="st1" x1="48.2" y1="69.2" x2="59.01" y2="64.22"/>
			<path class="st1" d="M62.15,50.24l5.63,3.57c2.05,1.3,2.65,4.01,1.35,6.06c-1.3,2.05-4.01,2.65-6.06,1.35l-5.63-3.57"/>
			<path class="st1" d="M57.08,57.43l-5.63-3.57c-2.05-1.3-2.65-4.01-1.35-6.06s4.01-2.65,6.06-1.35l5.63,3.57
				C61.79,50.02,56.78,57.91,57.08,57.43z"/>
			<line class="st1" x1="28.12" y1="51.78" x2="35.7" y2="51.78"/>
			<line class="st1" x1="31.63" y1="55.62" x2="35.7" y2="55.62"/>
			<line class="st1" x1="28.12" y1="59.6" x2="35.7" y2="59.6"/>
			<line class="st1" x1="31.63" y1="63.44" x2="35.7" y2="63.44"/>
			<line class="st1" x1="28.12" y1="67.42" x2="35.7" y2="67.42"/>
			<line class="st1" x1="31.63" y1="71.26" x2="35.7" y2="71.26"/>
			<path class="st1" d="M26.63,25.04c4.16-2.42,11.26,0.65,10.57,6.2c-0.69,5.54-2.56,10.81-8.03,10.81c-2.2-0.65-3.13,0-4.69,0
				c-4.16-0.35-7.65-5.27-8.35-10.81s6.23-8.66,10.39-6.23"/>
			<path class="st1" d="M26.46,17.66c1.04,4.16,0.36,9.97,0.36,9.97"/>
			<path class="st1" d="M27.61,24.65c0.59-5.08,6.65-8.99,9.38-7.82C37,21.13,29.96,24.65,27.61,24.65z"/>
		</g>
		<g>
			<g>
				<defs>
					<rect id="SVGID_00000079444914892076905320000007719091192980393915_" x="6.5" y="46.98" width="32.28" height="33.95"/>
				</defs>
				<clipPath id="SVGID_00000127741188833482335080000014906454986616014262_">
					<use xlink:href="#SVGID_00000079444914892076905320000007719091192980393915_"  style="overflow:visible;"/>
				</clipPath>
			</g>
		</g>
	</g>
	<g>
		<path class="st2" d="M93.24,45.75l-0.21-32.83l5.22-0.03l0.11,16.95l15.29-17.09l5.73-0.04l-12.81,14.62l13.76,18.25l-5.87,0.04
			l-11.19-14.98l-4.87,5.12l0.06,9.95L93.24,45.75z"/>
		<path class="st2" d="M147.63,40.83l0.03,4.58l-22.52,0.14l-0.21-32.83l22.1-0.14l0.03,4.58l-16.88,0.11l0.06,9.39l14.66-0.09
			l0.03,4.25l-14.66,0.09l0.06,10.03L147.63,40.83z"/>
		<path class="st2" d="M180.91,16.95L170,17.02l0.18,28.25l-5.22,0.03l-0.18-28.25l-10.96,0.07l-0.03-4.58l27.09-0.17L180.91,16.95z
			"/>
		<path class="st2" d="M201.3,45.3c-2.31,0.01-4.43-0.44-6.34-1.35c-1.92-0.91-3.58-2.16-5-3.74c-1.41-1.58-2.5-3.36-3.27-5.34
			c-0.77-1.98-1.16-4.02-1.17-6.12c-0.01-2.19,0.37-4.28,1.16-6.27c0.79-1.99,1.89-3.77,3.32-5.34c1.42-1.57,3.08-2.81,4.97-3.73
			c1.89-0.92,3.98-1.39,6.26-1.4c2.37-0.01,4.51,0.45,6.41,1.39c1.9,0.95,3.55,2.21,4.95,3.81c1.4,1.59,2.47,3.38,3.22,5.34
			c0.75,1.97,1.13,4,1.15,6.1c0.01,2.16-0.36,4.23-1.12,6.23s-1.85,3.77-3.27,5.34c-1.42,1.57-3.08,2.8-4.97,3.71
			C205.71,44.83,203.61,45.29,201.3,45.3z M190.83,28.72c0.01,1.57,0.26,3.07,0.75,4.5c0.49,1.43,1.19,2.71,2.1,3.82
			c0.92,1.12,2.02,2,3.3,2.64c1.28,0.64,2.74,0.95,4.38,0.94c1.67-0.01,3.14-0.36,4.43-1.04c1.29-0.69,2.38-1.61,3.27-2.77
			c0.89-1.16,1.56-2.45,2.01-3.87c0.45-1.42,0.68-2.87,0.67-4.35c-0.01-1.57-0.27-3.07-0.77-4.48c-0.5-1.41-1.22-2.68-2.15-3.8
			c-0.93-1.12-2.04-2-3.32-2.64c-1.28-0.64-2.71-0.95-4.28-0.94c-1.7,0.01-3.18,0.36-4.46,1.04c-1.28,0.69-2.36,1.6-3.24,2.75
			c-0.89,1.15-1.56,2.43-2.01,3.85C191.05,25.79,190.82,27.24,190.83,28.72z"/>
	</g>
	<g>
		<g>
			<path class="st2" d="M93.29,66.14V55.77h3.87c0.86,0,1.61,0.14,2.25,0.41c0.64,0.27,1.18,0.64,1.61,1.11
				c0.43,0.47,0.76,1.02,0.98,1.64c0.22,0.63,0.33,1.3,0.33,2.01c0,0.79-0.12,1.5-0.37,2.14c-0.24,0.64-0.59,1.18-1.04,1.64
				c-0.45,0.45-1,0.8-1.64,1.05c-0.64,0.25-1.35,0.37-2.13,0.37H93.29z M99.89,60.94c0-0.46-0.06-0.87-0.18-1.25
				c-0.12-0.38-0.3-0.7-0.53-0.97c-0.23-0.27-0.52-0.48-0.86-0.63s-0.73-0.22-1.15-0.22h-1.47v6.16h1.47c0.44,0,0.83-0.08,1.17-0.23
				s0.63-0.37,0.85-0.65c0.23-0.28,0.4-0.6,0.53-0.98C99.83,61.8,99.89,61.39,99.89,60.94z"/>
			<path class="st2" d="M106.67,66.14V55.77h2.4v10.37H106.67z"/>
			<path class="st2" d="M121.26,64.04v2.1h-7.29V55.77h7.16v2.1h-4.76v2.02h4.09v1.94h-4.09v2.21H121.26z"/>
			<path class="st2" d="M133.55,57.87h-3.15v8.27H128v-8.27h-3.17v-2.1h8.72V57.87z"/>
		</g>
	</g>
	<g>
		<g>
			<path class="st3" d="M140.35,60.88c0-0.62,0.12-1.24,0.35-1.86c0.23-0.62,0.57-1.17,1.02-1.66c0.45-0.49,0.99-0.88,1.64-1.18
				c0.64-0.3,1.37-0.45,2.19-0.45c0.97,0,1.82,0.21,2.53,0.63c0.72,0.42,1.25,0.96,1.6,1.64l-1.84,1.29
				c-0.12-0.27-0.26-0.5-0.45-0.68c-0.18-0.18-0.38-0.33-0.59-0.44c-0.22-0.11-0.43-0.19-0.66-0.23c-0.22-0.04-0.44-0.07-0.66-0.07
				c-0.46,0-0.86,0.09-1.2,0.28c-0.34,0.18-0.62,0.42-0.85,0.72c-0.22,0.29-0.39,0.62-0.5,0.99c-0.11,0.37-0.16,0.74-0.16,1.12
				c0,0.41,0.06,0.8,0.19,1.18c0.13,0.38,0.31,0.72,0.55,1.01c0.24,0.29,0.53,0.52,0.86,0.69c0.34,0.17,0.71,0.25,1.13,0.25
				c0.21,0,0.44-0.03,0.66-0.08c0.23-0.05,0.45-0.14,0.66-0.25c0.21-0.11,0.4-0.26,0.58-0.44c0.18-0.18,0.32-0.4,0.42-0.66
				l1.96,1.15c-0.16,0.38-0.39,0.72-0.69,1.02c-0.31,0.3-0.66,0.56-1.06,0.76c-0.4,0.2-0.82,0.36-1.27,0.47
				c-0.45,0.11-0.89,0.16-1.31,0.16c-0.75,0-1.44-0.15-2.07-0.46c-0.63-0.31-1.17-0.71-1.62-1.22c-0.45-0.51-0.8-1.08-1.05-1.72
				C140.48,62.2,140.35,61.54,140.35,60.88z"/>
			<path class="st3" d="M156.6,55.78h2.16l3.78,10.37h-2.45l-0.8-2.32h-3.23l-0.79,2.32h-2.45L156.6,55.78z M158.89,62.18
				l-1.21-3.67l-1.24,3.67H158.89z"/>
			<path class="st3" d="M166.48,66.15V55.78h2.4v8.27h5.02v2.1H166.48z"/>
			<path class="st3" d="M176.69,60.88c0-0.62,0.12-1.24,0.35-1.86c0.23-0.62,0.57-1.17,1.02-1.66c0.45-0.49,0.99-0.88,1.64-1.18
				c0.64-0.3,1.37-0.45,2.19-0.45c0.97,0,1.82,0.21,2.53,0.63c0.72,0.42,1.25,0.96,1.6,1.64l-1.84,1.29
				c-0.12-0.27-0.26-0.5-0.45-0.68c-0.18-0.18-0.38-0.33-0.59-0.44c-0.22-0.11-0.43-0.19-0.66-0.23c-0.22-0.04-0.44-0.07-0.66-0.07
				c-0.46,0-0.86,0.09-1.2,0.28c-0.34,0.18-0.62,0.42-0.85,0.72c-0.22,0.29-0.39,0.62-0.5,0.99c-0.11,0.37-0.16,0.74-0.16,1.12
				c0,0.41,0.06,0.8,0.19,1.18c0.13,0.38,0.31,0.72,0.55,1.01c0.24,0.29,0.53,0.52,0.86,0.69c0.34,0.17,0.71,0.25,1.13,0.25
				c0.21,0,0.44-0.03,0.66-0.08c0.23-0.05,0.45-0.14,0.66-0.25c0.21-0.11,0.4-0.26,0.58-0.44c0.18-0.18,0.32-0.4,0.42-0.66
				l1.96,1.15c-0.16,0.38-0.39,0.72-0.69,1.02c-0.31,0.3-0.66,0.56-1.06,0.76c-0.4,0.2-0.82,0.36-1.27,0.47
				c-0.45,0.11-0.89,0.16-1.31,0.16c-0.75,0-1.44-0.15-2.07-0.46c-0.63-0.31-1.17-0.71-1.62-1.22c-0.45-0.51-0.8-1.08-1.05-1.72
				C176.82,62.2,176.69,61.54,176.69,60.88z"/>
			<path class="st3" d="M194.72,64.11c0.41,0,0.75-0.08,1.04-0.25c0.28-0.17,0.51-0.4,0.69-0.68c0.17-0.28,0.3-0.61,0.37-0.97
				c0.07-0.36,0.11-0.74,0.11-1.12v-5.3h2.4v5.3c0,0.72-0.09,1.39-0.27,2.02c-0.18,0.62-0.46,1.17-0.83,1.64
				c-0.38,0.47-0.85,0.83-1.43,1.1c-0.58,0.27-1.27,0.4-2.07,0.4c-0.83,0-1.53-0.14-2.12-0.42c-0.58-0.28-1.06-0.66-1.42-1.13
				c-0.37-0.47-0.63-1.02-0.8-1.64s-0.26-1.28-0.26-1.96v-5.3h2.4v5.3c0,0.4,0.04,0.78,0.12,1.14c0.08,0.36,0.2,0.68,0.38,0.96
				c0.18,0.28,0.4,0.51,0.68,0.67C193.97,64.03,194.31,64.11,194.72,64.11z"/>
			<path class="st3" d="M204.1,66.15V55.78h2.4v8.27h5.02v2.1H204.1z"/>
			<path class="st3" d="M218.38,55.78h2.16l3.78,10.37h-2.45l-0.8-2.32h-3.23l-0.79,2.32h-2.45L218.38,55.78z M220.68,62.18
				l-1.21-3.67l-1.24,3.67H220.68z"/>
			<path class="st3" d="M235.15,57.89H232v8.27h-2.4v-8.27h-3.17v-2.1h8.72V57.89z"/>
			<path class="st3" d="M243.3,66.24c-0.77,0-1.47-0.15-2.1-0.45c-0.63-0.3-1.17-0.7-1.62-1.19c-0.45-0.49-0.8-1.05-1.04-1.69
				c-0.25-0.63-0.37-1.28-0.37-1.96c0-0.68,0.13-1.34,0.39-1.97c0.26-0.63,0.62-1.19,1.08-1.67c0.46-0.48,1.01-0.87,1.64-1.15
				c0.63-0.29,1.32-0.43,2.07-0.43c0.77,0,1.47,0.15,2.1,0.45c0.63,0.3,1.17,0.7,1.62,1.2c0.45,0.5,0.79,1.06,1.04,1.69
				c0.24,0.63,0.37,1.28,0.37,1.93c0,0.68-0.13,1.34-0.39,1.97c-0.26,0.63-0.62,1.19-1.07,1.67c-0.46,0.48-1,0.87-1.64,1.16
				C244.74,66.1,244.05,66.24,243.3,66.24z M240.6,60.98c0,0.4,0.06,0.79,0.17,1.16c0.12,0.38,0.29,0.71,0.52,1
				c0.23,0.29,0.51,0.53,0.86,0.7c0.34,0.17,0.73,0.26,1.17,0.26c0.46,0,0.86-0.09,1.2-0.28c0.34-0.18,0.62-0.43,0.85-0.72
				c0.22-0.3,0.39-0.63,0.5-1.01c0.11-0.37,0.17-0.76,0.17-1.15c0-0.4-0.06-0.79-0.18-1.16c-0.12-0.37-0.29-0.71-0.53-0.99
				c-0.23-0.29-0.52-0.52-0.85-0.69c-0.34-0.17-0.72-0.26-1.16-0.26c-0.46,0-0.85,0.09-1.19,0.27c-0.34,0.18-0.62,0.42-0.85,0.71
				c-0.23,0.29-0.4,0.63-0.51,1C240.66,60.21,240.6,60.59,240.6,60.98z"/>
			<path class="st3" d="M252.78,66.15V55.78h4.67c0.49,0,0.94,0.1,1.35,0.31c0.41,0.2,0.77,0.47,1.07,0.8
				c0.3,0.33,0.54,0.71,0.71,1.12c0.17,0.42,0.26,0.84,0.26,1.27c0,0.32-0.04,0.63-0.12,0.93c-0.08,0.3-0.19,0.58-0.34,0.84
				c-0.15,0.26-0.32,0.5-0.53,0.71c-0.21,0.21-0.45,0.39-0.71,0.53l2.28,3.86h-2.7l-1.99-3.35h-1.56v3.35H252.78z M255.18,60.72
				h2.19c0.28,0,0.53-0.13,0.73-0.4c0.21-0.27,0.31-0.61,0.31-1.03c0-0.43-0.12-0.77-0.35-1.02s-0.49-0.38-0.76-0.38h-2.12V60.72z"
				/>
		</g>
	</g>
</g>
<g>
	<defs>
		<polygon id="SVGID_00000054956020155303627380000013625256159926749830_" points="58.52,12.39 54.29,21.74 58.39,35.06 
			67.61,25.33 66.84,20.46 85.93,33.91 85.29,44.67 43.66,50.05 29.82,28.4 34.05,9.82 55.06,6.11 		"/>
	</defs>
	<clipPath id="SVGID_00000111892722745171044450000011209078481067248015_">
		<use xlink:href="#SVGID_00000054956020155303627380000013625256159926749830_"  style="overflow:visible;"/>
	</clipPath>
	<g style="clip-path:url(#SVGID_00000111892722745171044450000011209078481067248015_);">
		<path class="st1" d="M65.51,21.91c1,0.82,1.93,1.68,2.8,2.58c3.73,3.91,6.6,9.78,7.89,16.07"/>
		<path class="st1" d="M44.47,13.95c2.94,0,7.88,0.94,11.06,2.05c0.66,0.23,1.25,0.47,1.72,0.71"/>
	</g>
</g>
</svg>
