<?xml version="1.0" encoding="UTF-8"?><svg id="Layer_1" xmlns="http://www.w3.org/2000/svg" viewBox="0 0 504 172.28"><defs><style>.cls-1{fill:#8b6f4b;}.cls-2{fill:#244b5a;}</style></defs><g><g><path class="cls-2" d="M186.6,93.37l-.38-60.75,9.67-.06,.2,31.36,28.3-31.63,10.61-.07-23.71,27.06,25.46,33.77-10.87,.07-20.71-27.72-9.01,9.48,.12,18.42-9.67,.06Z"/><path class="cls-2" d="M287.26,84.27l.05,8.47-41.67,.26-.38-60.75,40.9-.26,.05,8.47-31.23,.2,.11,17.37,27.13-.17,.05,7.87-27.13,.17,.12,18.57,32-.2Z"/><path class="cls-2" d="M348.85,40.07l-20.19,.13,.33,52.28-9.67,.06-.33-52.28-20.28,.13-.05-8.47,50.14-.31,.05,8.47Z"/><path class="cls-2" d="M386.58,92.54c-4.28,.03-8.19-.81-11.74-2.49-3.55-1.69-6.63-4-9.25-6.92-2.61-2.92-4.63-6.22-6.05-9.89-1.42-3.67-2.14-7.45-2.17-11.32-.03-4.05,.69-7.92,2.15-11.61,1.46-3.69,3.51-6.98,6.14-9.88,2.63-2.9,5.7-5.2,9.2-6.91,3.5-1.71,7.36-2.57,11.58-2.6,4.39-.03,8.35,.83,11.87,2.58,3.52,1.75,6.57,4.1,9.16,7.05,2.59,2.95,4.58,6.25,5.97,9.89,1.39,3.64,2.1,7.4,2.12,11.28,.03,3.99-.66,7.84-2.07,11.52-1.4,3.69-3.42,6.98-6.06,9.88s-5.7,5.18-9.2,6.86c-3.5,1.68-7.38,2.53-11.66,2.56Zm-19.36-30.68c.02,2.91,.48,5.69,1.38,8.33,.9,2.65,2.2,5.01,3.89,7.07,1.7,2.07,3.73,3.7,6.11,4.88,2.37,1.18,5.07,1.77,8.1,1.74,3.08-.02,5.82-.66,8.2-1.93,2.39-1.27,4.4-2.98,6.04-5.13,1.64-2.15,2.88-4.53,3.72-7.17,.84-2.63,1.25-5.31,1.23-8.05-.02-2.91-.49-5.67-1.42-8.29-.93-2.62-2.26-4.96-3.98-7.04-1.72-2.07-3.78-3.7-6.15-4.88-2.38-1.18-5.02-1.77-7.93-1.75-3.14,.02-5.89,.67-8.25,1.93-2.36,1.27-4.36,2.97-6,5.09-1.64,2.12-2.88,4.5-3.72,7.12-.84,2.63-1.25,5.32-1.23,8.05Z"/></g><g><path class="cls-2" d="M186.69,131.11v-19.19h7.16c1.59,0,2.97,.25,4.16,.76,1.19,.51,2.19,1.19,2.99,2.05,.8,.87,1.41,1.88,1.81,3.04,.41,1.16,.61,2.4,.61,3.72,0,1.46-.23,2.78-.68,3.96-.45,1.18-1.09,2.19-1.93,3.03s-1.85,1.49-3.03,1.95c-1.18,.46-2.49,.69-3.93,.69h-7.16Zm12.22-9.62c0-.85-.11-1.62-.34-2.31-.23-.69-.56-1.29-.99-1.8-.43-.51-.96-.89-1.59-1.16s-1.34-.41-2.14-.41h-2.73v11.41h2.73c.81,0,1.53-.14,2.16-.43s1.16-.69,1.58-1.2c.42-.51,.75-1.12,.97-1.81,.22-.69,.34-1.46,.34-2.28Z"/><path class="cls-2" d="M211.45,131.11v-19.19h4.43v19.19h-4.43Z"/><path class="cls-2" d="M238.46,127.22v3.89h-13.49v-19.19h13.25v3.89h-8.81v3.73h7.57v3.6h-7.57v4.08h9.06Z"/><path class="cls-2" d="M261.19,115.81h-5.84v15.3h-4.43v-15.3h-5.87v-3.89h16.14v3.89Z"/></g><g><path class="cls-1" d="M273.79,121.38c0-1.15,.22-2.3,.65-3.45,.43-1.14,1.06-2.17,1.89-3.07s1.84-1.63,3.03-2.19c1.19-.56,2.54-.84,4.06-.84,1.8,0,3.37,.39,4.69,1.16,1.33,.77,2.31,1.78,2.96,3.03l-3.41,2.38c-.22-.51-.49-.92-.82-1.26-.33-.33-.7-.6-1.09-.81-.4-.21-.8-.35-1.22-.43-.41-.08-.82-.12-1.22-.12-.85,0-1.59,.17-2.22,.51s-1.15,.78-1.57,1.32c-.41,.54-.72,1.15-.92,1.84-.2,.68-.3,1.38-.3,2.08,0,.76,.12,1.49,.35,2.19,.23,.7,.57,1.32,1.01,1.87,.44,.54,.97,.97,1.59,1.28,.62,.31,1.32,.47,2.1,.47,.4,0,.81-.05,1.23-.15,.42-.1,.83-.25,1.22-.46s.74-.48,1.07-.81c.33-.33,.59-.74,.78-1.23l3.62,2.14c-.29,.7-.72,1.33-1.28,1.89-.57,.56-1.22,1.03-1.96,1.41-.74,.38-1.52,.67-2.35,.87s-1.64,.3-2.43,.3c-1.39,0-2.66-.28-3.83-.85-1.16-.57-2.16-1.32-3-2.26-.84-.94-1.49-2-1.95-3.19-.46-1.19-.69-2.4-.69-3.62Z"/><path class="cls-1" d="M303.85,111.94h4l7,19.19h-4.54l-1.49-4.3h-5.97l-1.46,4.3h-4.54l7-19.19Zm4.24,11.84l-2.24-6.79-2.3,6.79h4.54Z"/><path class="cls-1" d="M322.15,131.14v-19.19h4.43v15.3h9.3v3.89h-13.73Z"/><path class="cls-1" d="M341.05,121.38c0-1.15,.22-2.3,.65-3.45,.43-1.14,1.06-2.17,1.89-3.07s1.84-1.63,3.03-2.19c1.19-.56,2.54-.84,4.06-.84,1.8,0,3.37,.39,4.69,1.16,1.33,.77,2.31,1.78,2.96,3.03l-3.41,2.38c-.22-.51-.49-.92-.82-1.26-.33-.33-.7-.6-1.09-.81-.4-.21-.8-.35-1.22-.43-.41-.08-.82-.12-1.22-.12-.85,0-1.59,.17-2.22,.51s-1.15,.78-1.57,1.32c-.41,.54-.72,1.15-.92,1.84-.2,.68-.3,1.38-.3,2.08,0,.76,.12,1.49,.35,2.19,.23,.7,.57,1.32,1.01,1.87,.44,.54,.97,.97,1.59,1.28,.62,.31,1.32,.47,2.1,.47,.4,0,.81-.05,1.23-.15,.42-.1,.83-.25,1.22-.46s.74-.48,1.07-.81c.33-.33,.59-.74,.78-1.23l3.62,2.14c-.29,.7-.72,1.33-1.28,1.89-.57,.56-1.22,1.03-1.96,1.41-.74,.38-1.52,.67-2.35,.87s-1.64,.3-2.43,.3c-1.39,0-2.66-.28-3.83-.85-1.16-.57-2.16-1.32-3-2.26-.84-.94-1.49-2-1.95-3.19-.46-1.19-.69-2.4-.69-3.62Z"/><path class="cls-1" d="M374.41,127.35c.76,0,1.4-.16,1.92-.47,.52-.32,.95-.74,1.27-1.26,.32-.52,.55-1.12,.69-1.8,.14-.67,.2-1.36,.2-2.07v-9.81h4.43v9.81c0,1.33-.17,2.58-.5,3.73-.33,1.15-.85,2.16-1.54,3.03-.69,.87-1.58,1.54-2.65,2.04-1.07,.5-2.35,.74-3.83,.74s-2.84-.26-3.92-.78c-1.08-.52-1.96-1.22-2.64-2.1s-1.17-1.89-1.49-3.04-.47-2.36-.47-3.62v-9.81h4.43v9.81c0,.74,.07,1.44,.22,2.11,.14,.67,.38,1.26,.7,1.79,.33,.52,.74,.94,1.26,1.24,.51,.31,1.15,.46,1.91,.46Z"/><path class="cls-1" d="M391.76,131.14v-19.19h4.43v15.3h9.3v3.89h-13.73Z"/><path class="cls-1" d="M418.2,111.94h4l7,19.19h-4.54l-1.49-4.3h-5.97l-1.46,4.3h-4.54l7-19.19Zm4.24,11.84l-2.24-6.79-2.3,6.79h4.54Z"/><path class="cls-1" d="M449.24,115.83h-5.84v15.3h-4.43v-15.3h-5.87v-3.89h16.14v3.89Z"/><path class="cls-1" d="M464.32,131.3c-1.42,0-2.72-.28-3.89-.84-1.17-.56-2.17-1.29-3-2.2s-1.47-1.95-1.93-3.12c-.46-1.17-.69-2.38-.69-3.62s.24-2.48,.72-3.65c.48-1.17,1.14-2.2,2-3.1,.86-.89,1.87-1.6,3.04-2.13,1.17-.53,2.45-.8,3.84-.8s2.72,.28,3.89,.84c1.17,.56,2.17,1.3,3,2.22,.83,.92,1.47,1.96,1.92,3.14,.45,1.17,.68,2.36,.68,3.57s-.24,2.48-.72,3.65c-.48,1.17-1.14,2.2-1.99,3.1-.85,.89-1.86,1.61-3.03,2.15-1.17,.54-2.45,.81-3.84,.81Zm-5-9.73c0,.74,.11,1.46,.32,2.15s.54,1.31,.96,1.85,.95,.97,1.58,1.3c.63,.32,1.35,.49,2.16,.49s1.59-.17,2.22-.51,1.15-.79,1.57-1.34c.41-.55,.72-1.17,.93-1.87,.21-.69,.31-1.4,.31-2.12s-.11-1.46-.33-2.15c-.22-.69-.54-1.31-.97-1.84s-.96-.95-1.58-1.27c-.62-.31-1.34-.47-2.15-.47s-1.58,.17-2.2,.5-1.15,.77-1.57,1.31c-.43,.54-.74,1.16-.95,1.85-.21,.69-.31,1.4-.31,2.12Z"/><path class="cls-1" d="M481.87,131.14v-19.19h8.65c.9,0,1.74,.19,2.5,.57s1.43,.87,1.99,1.49c.56,.61,1,1.31,1.31,2.08,.31,.77,.47,1.56,.47,2.35,0,.59-.07,1.17-.22,1.72-.15,.55-.35,1.07-.62,1.56-.27,.49-.6,.92-.99,1.31s-.82,.72-1.31,.99l4.22,7.14h-5l-3.68-6.19h-2.89v6.19h-4.43Zm4.43-10.06h4.05c.52,0,.97-.25,1.35-.74,.38-.49,.57-1.13,.57-1.9s-.22-1.42-.65-1.89-.9-.7-1.41-.7h-3.92v5.25Z"/></g></g><g><g><g><path class="cls-1" d="M127.59,34.7c1.58,3.44,3.09,6.93,4.26,10.03,8.4,9.3,13.92,21.25,15.11,34.43h4.42c-1.51-17.95-10.48-33.8-23.78-44.46Z"/><path class="cls-1" d="M118.62,28.68c-7.67-4.26-16.29-6.99-25.47-7.77v4.42c8.5,.77,16.47,3.35,23.57,7.33,.64-1.36,1.28-2.69,1.9-3.98Z"/></g><path class="cls-1" d="M82.29,143.79c-28.48-2.59-51.22-25.35-53.8-53.84h-4.42c2.6,30.92,27.3,55.64,58.22,58.26v-4.42Z"/></g><path class="cls-1" d="M80.09,163.17c-1.22,0-2.2-.99-2.2-2.2V76.96c0-1.22,.99-2.2,2.2-2.2h84.01c1.22,0,2.2,.99,2.2,2.2,0,23.03-8.97,44.68-25.25,60.96-16.28,16.28-37.93,25.25-60.96,25.25Zm2.2-84.01v79.58c21.03-.55,40.71-9,55.64-23.93,14.93-14.93,23.38-34.62,23.93-55.64H82.29Z"/><path class="cls-1" d="M95.36,94.35H11.34c-1.22,0-2.2-.99-2.2-2.2,0-23.03,8.97-44.68,25.25-60.96C50.68,14.91,72.33,5.94,95.36,5.94c1.22,0,2.2,.99,2.2,2.2V92.15c0,1.22-.99,2.2-2.2,2.2Zm-81.78-4.41H93.15V10.37c-21.03,.55-40.71,9-55.64,23.93-14.93,14.93-23.38,34.62-23.93,55.64Z"/><path class="cls-1" d="M123.48,17.18c-.36-.67-1.05-1.08-1.8-1.08s-1.45,.42-1.8,1.08c-1.51,2.83-14.77,27.92-14.77,36.21,0,9.14,7.43,16.57,16.57,16.57s16.57-7.43,16.57-16.57c0-8.29-13.26-33.38-14.77-36.21Zm-1.8,48.69c-6.88,0-12.48-5.6-12.48-12.48,0-5.37,7.84-21.78,12.48-30.83,4.64,9.05,12.48,25.46,12.48,30.83,0,6.88-5.6,12.48-12.48,12.48Z"/><path class="cls-1" d="M105.56,140.1c-2.48,0-4.91-.67-7.09-1.98-3.17-1.9-5.41-4.92-6.31-8.51-.9-3.59-.35-7.31,1.55-10.48,1.9-3.17,4.92-5.41,8.51-6.31,7.4-1.86,14.94,2.66,16.79,10.07,.9,3.59,.35,7.31-1.55,10.48-1.9,3.17-4.92,5.41-8.51,6.31-1.12,.28-2.26,.42-3.39,.42Zm.02-23.61c-.78,0-1.58,.1-2.37,.29-2.53,.63-4.66,2.21-6,4.45-1.34,2.24-1.73,4.86-1.1,7.39,.63,2.53,2.21,4.66,4.45,6,2.23,1.34,4.86,1.73,7.39,1.1,2.53-.63,4.66-2.21,6-4.45s1.73-4.86,1.1-7.39h0c-1.11-4.43-5.1-7.39-9.46-7.39Z"/><path class="cls-1" d="M94.75,132.85c-.77,0-1.51-.44-1.86-1.19-.47-1.02-.03-2.24,1-2.71l20-9.23c1.03-.47,2.24-.03,2.71,1,.47,1.02,.03,2.24-1,2.71l-20,9.23c-.28,.13-.57,.19-.85,.19Z"/><path class="cls-1" d="M133.06,122.07c-1.86,0-3.75-.51-5.43-1.58l-10.42-6.61c-.95-.61-1.23-1.87-.63-2.82,.61-.95,1.87-1.23,2.82-.63l10.42,6.61c2.83,1.8,6.6,.96,8.4-1.88,1.8-2.83,.96-6.6-1.88-8.4l-10.41-6.61c-.95-.61-1.23-1.87-.63-2.82,.61-.95,1.87-1.23,2.82-.63l10.41,6.61c4.73,3.01,6.14,9.3,3.14,14.04-1.94,3.05-5.24,4.72-8.61,4.72Z"/><path class="cls-1" d="M117.68,113.9c-.34,0-.72-.13-1.16-.41-.12-.08-.23-.17-.33-.27l-10.06-6.38c-2.29-1.46-3.88-3.72-4.47-6.37-.59-2.65-.12-5.38,1.34-7.67,1.46-2.29,3.72-3.88,6.37-4.48,2.65-.59,5.38-.12,7.67,1.34l10.42,6.61c.46,.29,.78,.75,.9,1.28,.12,.53,.02,1.08-.27,1.54l-7.37,11.61c-.45,.7-.82,1.3-1.17,1.78-.05,.12-.1,.23-.17,.33l-.05-.03s-.02,.02-.03,.03l.06,.04-.06-.04c-.55,.7-1.04,1.08-1.61,1.08Zm-6.08-21.74c-.44,0-.89,.05-1.34,.15-1.58,.35-2.94,1.31-3.81,2.68-.87,1.37-1.16,3-.8,4.59s1.31,2.94,2.68,3.81l8.69,5.52,6.52-10.27-8.69-5.52c-.99-.63-2.11-.95-3.25-.95Z"/><path class="cls-1" d="M70.48,102.75h-7.53c-1.13,0-2.04-.92-2.04-2.04s.92-2.04,2.04-2.04h7.53c1.13,0,2.04,.92,2.04,2.04s-.92,2.04-2.04,2.04Z"/><path class="cls-1" d="M70.48,110.12h-14.03c-1.13,0-2.04-.92-2.04-2.04s.92-2.04,2.04-2.04h14.03c1.13,0,2.04,.92,2.04,2.04s-.92,2.04-2.04,2.04Z"/><path class="cls-1" d="M70.48,117.22h-7.53c-1.13,0-2.04-.92-2.04-2.04s.92-2.04,2.04-2.04h7.53c1.13,0,2.04,.92,2.04,2.04s-.92,2.04-2.04,2.04Z"/><path class="cls-1" d="M70.48,124.59h-14.03c-1.13,0-2.04-.92-2.04-2.04s.92-2.04,2.04-2.04h14.03c1.13,0,2.04,.92,2.04,2.04s-.92,2.04-2.04,2.04Z"/><path class="cls-1" d="M70.48,131.69h-7.53c-1.13,0-2.04-.92-2.04-2.04s.92-2.04,2.04-2.04h7.53c1.13,0,2.04,.92,2.04,2.04s-.92,2.04-2.04,2.04Z"/></g><g><path class="cls-1" d="M55.27,52.92s-.03,0-.04-.01c-.52-.16-.95-.52-1.19-1.01-.09-.18-8.6-18.01,11.13-28.32,.46-.24,1-.28,1.5-.13,.5,.16,.91,.52,1.14,.98,2.94,5.86,4.41,19.32-11.05,28.29-.45,.26-1,.33-1.5,.19Zm9.78-24.78c-10.73,6.64-9.5,15.89-8.28,19.98,10.53-7.15,9.43-16.08,8.28-19.98Z"/><path class="cls-1" d="M55.46,55.67c-1.77,0-17.47-.54-18.64-19.05-.03-.52,.14-1.04,.49-1.43,.35-.39,.84-.62,1.36-.65,.16-.01,16.7-.55,18.8,18.96,.06,.54-.11,1.08-.46,1.49-.35,.41-.86,.65-1.4,.68,0,0-.06,0-.16,0Zm-14.5-17.06c1.53,10.04,8.61,12.43,12.29,12.99-1.96-10.07-8.79-12.44-12.29-12.99Z"/></g><path class="cls-1" d="M70.09,54.13c-.44-.36-.85-.77-1.22-1.21-.76-.93-1.2-1.88-1.23-2.68-.03-.81,.35-1.37,1.09-1.56,.74-.2,1.74,0,2.81,.53,1.05,.53,2.05,1.33,2.82,2.26,1.59,1.94,1.65,3.84,.14,4.24h0c-1.17,.31-2.93-.37-4.41-1.58Z"/><path class="cls-1" d="M81.72,54.05c-.19-2.56-1.11-4.83-2.66-6.56-2.64-2.96-6.25-4.72-9.89-4.84-3.49-.11-6.76,1.25-9.51,3.95-2.76,2.71-4.9,6.83-5.9,11.02,1.26,.85,2.45,1.88,3.51,3.07,.49-3.94,2.38-8.42,5.22-11.21,1.9-1.86,4.01-2.8,6.28-2.8,.09,0,.18,0,.27,0,2.54,.08,5.1,1.36,7.01,3.5,.95,1.06,1.52,2.5,1.64,4.16,.06,.77,.02,1.58-.11,2.42-.48,3.07-2.11,6.11-4.61,8.56-2.48,2.43-5.45,3.93-8.36,4.23-1.1,.11-2.12,.02-3.04-.22,.09,.57,.15,1.13,.17,1.69,.02,.85-.05,1.67-.2,2.44,.67,.11,1.36,.18,2.07,.18,.46,0,.92-.02,1.4-.07,3.82-.38,7.66-2.29,10.79-5.36,3.12-3.06,5.17-6.9,5.77-10.83,.18-1.13,.23-2.25,.15-3.33Z"/><path class="cls-1" d="M53.2,82.07c-5.91,0-12.97-3.3-16.74-7.75-2.49-2.94-3.61-6.32-3.24-9.77,.39-3.62,2.41-7.09,5.56-9.51,2.62-2.01,6.26-2.65,10.05-1.78,3.87,.9,7.56,3.22,10.38,6.56,2.84,3.35,4.45,7.32,4.55,11.16,.1,3.84-1.32,7.09-4,9.15-1.75,1.35-4.05,1.94-6.56,1.94Zm-7.68-25.16c-1.67,0-3.14,.46-4.27,1.33-2.27,1.75-3.73,4.21-4.01,6.74-.25,2.36,.52,4.62,2.31,6.73,4.43,5.23,14.05,8.06,17.75,5.21,1.63-1.25,2.49-3.33,2.42-5.84-.07-2.93-1.35-6-3.6-8.66-2.26-2.67-5.17-4.53-8.2-5.23-.82-.19-1.63-.29-2.4-.29Z"/><path class="cls-1" d="M44.74,64.47c-.39,.41-.83,.79-1.3,1.12-.98,.69-1.97,1.06-2.76,1.03-.81-.03-1.34-.45-1.48-1.21-.14-.75,.12-1.73,.73-2.76,.6-1.01,1.48-1.95,2.46-2.64,2.05-1.44,3.95-1.37,4.24,.17h0c.22,1.19-.58,2.9-1.9,4.28Z"/></svg>